<svg xmlns="http://www.w3.org/2000/svg" viewBox="0 0 1440 1100" width="1440" height="1100" role="img" aria-label="Northbank end-to-end architecture. Customers and staff use a web browser that holds no bearer token and talks only to the Next.js backend-for-frontend, an application BFF outside the current AWS Terraform. The BFF resolves the API hostname through Route 53 (DNS) and sends server-side HTTPS requests to CloudFront, with AWS WAF and an ACM certificate, which forwards to an Application Load Balancer that accepts only CloudFront&#x27;s origin traffic, which forwards to the Spring Cloud Gateway. The gateway validates the JWT, forwards trusted identity headers, rate-limits and discovers services through Eureka. Eleven Spring Boot services are grouped by domain: identity (user-service); accounts and money movement (account-service, the only writer of balances, transaction-service, payment-service, integration-service); lending and cards (application-service, loan-service, credit-card-service); and risk and insight (fraud-detection, statistics-service, notification-service). REST and OpenFeign carry immediate authoritative operations; Kafka events carry derived, asynchronous workflows. Each service owns a logical PostgreSQL 16 database; in the AWS model the 11 logical databases share one RDS PostgreSQL deployment with Multi-AZ enabled by default. Redis holds rate limits, counters and cache (ElastiCache); Kafka uses a transactional outbox, idempotent consumers, retry and dead-letter topics (Amazon MSK). A runtime and operations rail shows ECS Fargate in private subnets, ECR, Secrets Manager, CloudWatch Logs, Prometheus, Grafana and Zipkin, and delivery tooling.">
<style>text{font-family:-apple-system,"Segoe UI",Roboto,Helvetica,Arial,sans-serif}</style>
<rect width="1440" height="1100" fill="#ffffff"/>
<rect x="60" y="24" width="300" height="78" rx="12" fill="#fafbff" stroke="#3f4ab8" stroke-width="2"/>
<text x="210.0" y="58.3" font-size="18" font-weight="700" fill="#14213d" text-anchor="middle">Customers · Staff</text>
<text x="210.0" y="80.3" font-size="14" font-weight="400" fill="#4b587c" text-anchor="middle">web browser · holds no bearer token</text>
<rect x="60" y="152" width="300" height="96" rx="12" fill="#fafbff" stroke="#3f4ab8" stroke-width="2"/>
<text x="210.0" y="184.3" font-size="18" font-weight="700" fill="#3f4ab8" text-anchor="middle">Next.js BFF</text>
<text x="210.0" y="206.3" font-size="14" font-weight="400" fill="#4b587c" text-anchor="middle">server-side session</text>
<text x="210.0" y="228.3" font-size="14" font-weight="400" fill="#4b587c" text-anchor="middle">browser holds no bearer token</text>
<text x="210" y="270" font-size="12.5" font-weight="400" fill="#7a849e" text-anchor="middle" font-style="italic">application BFF — outside current AWS Terraform</text>
<path d="M210.0,152.0 L217.0,139.0 L203.0,139.0 z" fill="#3f4ab8"/>
<path d="M210.0,102.0 L210.0,139.0" fill="none" stroke="#3f4ab8" stroke-width="2.5"/>
<rect x="153.04" y="119" width="113.92000000000002" height="20" rx="4" fill="#ffffff" stroke="none" stroke-width="0"/>
<text x="210" y="132" font-size="13" font-weight="600" fill="#3f4ab8" text-anchor="middle">session cookie</text>
<rect x="430" y="14" width="650" height="252" rx="16" fill="none" stroke="#7a849e" stroke-width="1.6" stroke-dasharray="7 6"/>
<text x="446" y="38" font-size="12" font-weight="700" fill="#7a849e" text-anchor="start">AWS API EDGE</text>
<rect x="600" y="44" width="230" height="72" rx="12" fill="#f6f7f9" stroke="#b4bac7" stroke-width="1.5"/>
<text x="715.0" y="75.75" font-size="15" font-weight="700" fill="#14213d" text-anchor="middle">Route 53</text>
<text x="715.0" y="94.75" font-size="13" font-weight="400" fill="#4b587c" text-anchor="middle">resolves the API hostname</text>
<rect x="470" y="166" width="300" height="72" rx="12" fill="#f6f7f9" stroke="#b4bac7" stroke-width="1.5"/>
<text x="620.0" y="197.75" font-size="15" font-weight="700" fill="#14213d" text-anchor="middle">CloudFront + WAF</text>
<text x="620.0" y="216.75" font-size="13" font-weight="400" fill="#4b587c" text-anchor="middle">ACM certificate · HTTPS</text>
<rect x="820" y="166" width="240" height="72" rx="12" fill="#f6f7f9" stroke="#b4bac7" stroke-width="1.5"/>
<text x="940.0" y="197.75" font-size="15" font-weight="700" fill="#14213d" text-anchor="middle">Load Balancer</text>
<text x="940.0" y="216.75" font-size="13" font-weight="400" fill="#4b587c" text-anchor="middle">ALB · CloudFront-only origin</text>
<path d="M600.0,80.0 L587.0,73.0 L587.0,87.0 z" fill="#7a849e"/>
<path d="M360.0,172.0 L400.0,172.0 L400.0,80.0 L587.0,80.0" fill="none" stroke="#7a849e" stroke-width="2" stroke-dasharray="8 6"/>
<text x="470" y="72" font-size="12" font-weight="600" fill="#7a849e" text-anchor="middle">DNS lookup</text>
<path d="M470.0,214.0 L457.0,207.0 L457.0,221.0 z" fill="#3f4ab8"/>
<path d="M360.0,214.0 L457.0,214.0" fill="none" stroke="#3f4ab8" stroke-width="2.5"/>
<text x="398" y="204" font-size="12" font-weight="600" fill="#3f4ab8" text-anchor="middle">server-side</text>
<text x="398" y="234" font-size="12" font-weight="600" fill="#3f4ab8" text-anchor="middle">HTTPS</text>
<path d="M820.0,202.0 L807.0,195.0 L807.0,209.0 z" fill="#7a849e"/>
<path d="M770.0,202.0 L807.0,202.0" fill="none" stroke="#7a849e" stroke-width="2"/>
<rect x="30" y="288" width="1060" height="132" rx="16" fill="none" stroke="#8a93ad" stroke-width="1.6" stroke-dasharray="7 6"/>
<text x="46" y="312" font-size="13" font-weight="700" fill="#8a93ad" text-anchor="start">GATEWAY &amp; DISCOVERY</text>
<rect x="500" y="314" width="380" height="92" rx="12" fill="#fafbff" stroke="#3f4ab8" stroke-width="2"/>
<text x="690.0" y="344.3" font-size="18" font-weight="700" fill="#3f4ab8" text-anchor="middle">API Gateway</text>
<text x="690.0" y="366.3" font-size="14" font-weight="400" fill="#4b587c" text-anchor="middle">Spring Cloud Gateway · JWT validation</text>
<text x="690.0" y="388.3" font-size="14" font-weight="400" fill="#4b587c" text-anchor="middle">trusted identity headers · rate limiting</text>
<rect x="910" y="322" width="160" height="76" rx="12" fill="#fafbff" stroke="#3f4ab8" stroke-width="2"/>
<text x="990.0" y="355.6" font-size="16" font-weight="700" fill="#14213d" text-anchor="middle">Eureka</text>
<text x="990.0" y="375.6" font-size="13.5" font-weight="400" fill="#4b587c" text-anchor="middle">service discovery</text>
<path d="M690.0,314.0 L697.0,301.0 L683.0,301.0 z" fill="#3f4ab8"/>
<path d="M940.0,238.0 L940.0,270.0 L690.0,270.0 L690.0,301.0" fill="none" stroke="#3f4ab8" stroke-width="2.5"/>
<path d="M910.0,360.0 L897.0,353.0 L897.0,367.0 z" fill="#7a849e"/>
<path d="M880.0,360.0 L897.0,360.0" fill="none" stroke="#7a849e" stroke-width="2" stroke-dasharray="8 6"/>
<rect x="30" y="430" width="1060" height="392" rx="16" fill="none" stroke="#8a93ad" stroke-width="1.6" stroke-dasharray="7 6"/>
<text x="46" y="454" font-size="13" font-weight="700" fill="#8a93ad" text-anchor="start">PRIVATE SERVICE NETWORK · 11 SPRING BOOT SERVICES</text>
<path d="M690.0,406.0 L690.0,470.0" fill="none" stroke="#3f4ab8" stroke-width="2.5"/>
<path d="M150.0,470.0 L960.0,470.0" fill="none" stroke="#3f4ab8" stroke-width="2.5"/>
<path d="M150.0,492.0 L157.0,479.0 L143.0,479.0 z" fill="#3f4ab8"/>
<path d="M150.0,470.0 L150.0,479.0" fill="none" stroke="#3f4ab8" stroke-width="2.5"/>
<path d="M415.0,492.0 L422.0,479.0 L408.0,479.0 z" fill="#3f4ab8"/>
<path d="M415.0,470.0 L415.0,479.0" fill="none" stroke="#3f4ab8" stroke-width="2.5"/>
<path d="M705.0,492.0 L712.0,479.0 L698.0,479.0 z" fill="#3f4ab8"/>
<path d="M705.0,470.0 L705.0,479.0" fill="none" stroke="#3f4ab8" stroke-width="2.5"/>
<path d="M960.0,492.0 L967.0,479.0 L953.0,479.0 z" fill="#3f4ab8"/>
<path d="M960.0,470.0 L960.0,479.0" fill="none" stroke="#3f4ab8" stroke-width="2.5"/>
<text x="704" y="448" font-size="13" font-weight="600" fill="#3f4ab8" text-anchor="start">routes /api/** · identity in headers</text>
<rect x="50" y="492" width="200" height="306" rx="14" fill="#fafbff" stroke="#9aa3d9" stroke-width="2"/>
<text x="150.0" y="518" font-size="15.5" font-weight="700" fill="#3f4ab8" text-anchor="middle">Identity</text>
<rect x="270" y="492" width="290" height="306" rx="14" fill="#fafbff" stroke="#9aa3d9" stroke-width="2"/>
<text x="415.0" y="518" font-size="15.5" font-weight="700" fill="#3f4ab8" text-anchor="middle">Accounts &amp; Money Movement</text>
<rect x="580" y="492" width="250" height="306" rx="14" fill="#fafbff" stroke="#9aa3d9" stroke-width="2"/>
<text x="705.0" y="518" font-size="15.5" font-weight="700" fill="#3f4ab8" text-anchor="middle">Lending &amp; Cards</text>
<rect x="850" y="492" width="220" height="306" rx="14" fill="#fafbff" stroke="#9aa3d9" stroke-width="2"/>
<text x="960.0" y="518" font-size="15.5" font-weight="700" fill="#3f4ab8" text-anchor="middle">Risk &amp; Insight</text>
<rect x="62" y="536" width="176" height="50" rx="12" fill="#f3f5fb" stroke="#3f4ab8" stroke-width="2"/>
<text x="150.0" y="557.25" font-size="15" font-weight="700" fill="#14213d" text-anchor="middle">user-service</text>
<text x="150.0" y="575.25" font-size="12.5" font-weight="400" fill="#4b587c" text-anchor="middle">sign-in · JWT · TOTP</text>
<rect x="282" y="536" width="266" height="50" rx="12" fill="#fafbff" stroke="#3f4ab8" stroke-width="2"/>
<text x="415.0" y="557.25" font-size="15" font-weight="700" fill="#3f4ab8" text-anchor="middle">account-service</text>
<text x="415.0" y="575.25" font-size="12.5" font-weight="400" fill="#4b587c" text-anchor="middle">only writer of balances</text>
<rect x="282" y="624" width="266" height="40" rx="12" fill="#f3f5fb" stroke="#3f4ab8" stroke-width="2"/>
<text x="415.0" y="649.25" font-size="15" font-weight="700" fill="#14213d" text-anchor="middle">transaction-service</text>
<rect x="282" y="674" width="266" height="40" rx="12" fill="#f3f5fb" stroke="#3f4ab8" stroke-width="2"/>
<text x="415.0" y="699.25" font-size="15" font-weight="700" fill="#14213d" text-anchor="middle">payment-service</text>
<rect x="282" y="724" width="266" height="40" rx="12" fill="#f3f5fb" stroke="#3f4ab8" stroke-width="2"/>
<text x="415.0" y="749.25" font-size="15" font-weight="700" fill="#14213d" text-anchor="middle">integration-service</text>
<rect x="592" y="536" width="226" height="50" rx="12" fill="#f3f5fb" stroke="#3f4ab8" stroke-width="2"/>
<text x="705.0" y="557.25" font-size="15" font-weight="700" fill="#14213d" text-anchor="middle">application-service</text>
<text x="705.0" y="575.25" font-size="12.5" font-weight="400" fill="#4b587c" text-anchor="middle">underwriting · offers</text>
<rect x="592" y="624" width="226" height="40" rx="12" fill="#f3f5fb" stroke="#3f4ab8" stroke-width="2"/>
<text x="705.0" y="649.25" font-size="15" font-weight="700" fill="#14213d" text-anchor="middle">loan-service</text>
<rect x="592" y="674" width="226" height="40" rx="12" fill="#f3f5fb" stroke="#3f4ab8" stroke-width="2"/>
<text x="705.0" y="699.25" font-size="15" font-weight="700" fill="#14213d" text-anchor="middle">credit-card-service</text>
<rect x="862" y="536" width="196" height="40" rx="12" fill="#f3f5fb" stroke="#3f4ab8" stroke-width="2"/>
<text x="960.0" y="561.25" font-size="15" font-weight="700" fill="#14213d" text-anchor="middle">fraud-detection</text>
<rect x="862" y="586" width="196" height="40" rx="12" fill="#f3f5fb" stroke="#3f4ab8" stroke-width="2"/>
<text x="960.0" y="611.25" font-size="15" font-weight="700" fill="#14213d" text-anchor="middle">statistics-service</text>
<rect x="862" y="636" width="196" height="40" rx="12" fill="#f3f5fb" stroke="#3f4ab8" stroke-width="2"/>
<text x="960.0" y="661.25" font-size="15" font-weight="700" fill="#14213d" text-anchor="middle">notification-service</text>
<text x="960" y="714" font-size="13" font-weight="400" fill="#7a849e" text-anchor="middle" font-style="italic">consume events;</text>
<text x="960" y="732" font-size="13" font-weight="400" fill="#7a849e" text-anchor="middle" font-style="italic">never block a transfer</text>
<path d="M322.0,586.0 L315.0,599.0 L329.0,599.0 z" fill="#3f4ab8"/>
<path d="M322.0,624.0 L322.0,599.0" fill="none" stroke="#3f4ab8" stroke-width="2.5"/>
<text x="334" y="610" font-size="13" font-weight="600" fill="#3f4ab8" text-anchor="start">OpenFeign</text>
<path d="M548.0,561.0 L561.0,568.0 L561.0,554.0 z" fill="#3f4ab8"/>
<path d="M592.0,561.0 L561.0,561.0" fill="none" stroke="#3f4ab8" stroke-width="2.5"/>
<text x="705.0" y="610" font-size="12.5" font-weight="400" fill="#7a849e" text-anchor="middle" font-style="italic">offer accepted → provisioning</text>
<rect x="30" y="842" width="1060" height="178" rx="16" fill="none" stroke="#8a93ad" stroke-width="1.6" stroke-dasharray="7 6"/>
<text x="46" y="866" font-size="13" font-weight="700" fill="#8a93ad" text-anchor="start">DATA &amp; MESSAGING</text>
<rect x="50" y="876" width="300" height="128" rx="12" fill="#eef6fb" stroke="#0b6f8a" stroke-width="2"/>
<text x="200.0" y="914.45" font-size="17" font-weight="700" fill="#0b6f8a" text-anchor="middle">PostgreSQL 16</text>
<text x="200.0" y="935.45" font-size="14" font-weight="400" fill="#4b587c" text-anchor="middle">logical database per service</text>
<text x="200.0" y="956.45" font-size="14" font-weight="400" fill="#4b587c" text-anchor="middle">service-owned data</text>
<text x="200.0" y="977.45" font-size="14" font-weight="400" fill="#4b587c" text-anchor="middle">AWS: one RDS deployment</text>
<rect x="370" y="876" width="250" height="128" rx="12" fill="#eef6fb" stroke="#0b6f8a" stroke-width="2"/>
<text x="495.0" y="914.45" font-size="17" font-weight="700" fill="#0b6f8a" text-anchor="middle">Redis 7</text>
<text x="495.0" y="935.45" font-size="14" font-weight="400" fill="#4b587c" text-anchor="middle">rate limiting · cache</text>
<text x="495.0" y="956.45" font-size="14" font-weight="400" fill="#4b587c" text-anchor="middle">velocity state</text>
<text x="495.0" y="977.45" font-size="14" font-weight="400" fill="#4b587c" text-anchor="middle">AWS: ElastiCache</text>
<rect x="640" y="876" width="430" height="128" rx="12" fill="#fff8e6" stroke="#9a6700" stroke-width="2"/>
<text x="855.0" y="914.45" font-size="17" font-weight="700" fill="#9a6700" text-anchor="middle">Apache Kafka</text>
<text x="855.0" y="935.45" font-size="14" font-weight="400" fill="#4b587c" text-anchor="middle">transactional outbox → idempotent consumers</text>
<text x="855.0" y="956.45" font-size="14" font-weight="400" fill="#4b587c" text-anchor="middle">bounded retry → dead-letter topic</text>
<text x="855.0" y="977.45" font-size="14" font-weight="400" fill="#4b587c" text-anchor="middle">AWS: Amazon MSK</text>
<path d="M210.0,876.0 L217.0,863.0 L203.0,863.0 z" fill="#0b6f8a"/>
<path d="M210.0,798.0 L210.0,863.0" fill="none" stroke="#0b6f8a" stroke-width="2.5"/>
<text x="222" y="864" font-size="12.5" font-weight="600" fill="#0b6f8a" text-anchor="start">JDBC · own database</text>
<path d="M470.0,876.0 L477.0,863.0 L463.0,863.0 z" fill="#0b6f8a"/>
<path d="M470.0,798.0 L470.0,863.0" fill="none" stroke="#0b6f8a" stroke-width="2.5"/>
<path d="M680.0,876.0 L687.0,863.0 L673.0,863.0 z" fill="#9a6700"/>
<path d="M530.0,798.0 L530.0,832.0 L680.0,832.0 L680.0,863.0" fill="none" stroke="#9a6700" stroke-width="2.5" stroke-dasharray="8 6"/>
<path d="M760.0,876.0 L767.0,863.0 L753.0,863.0 z" fill="#9a6700"/>
<path d="M760.0,798.0 L753.0,811.0 L767.0,811.0 z" fill="#9a6700"/>
<path d="M760.0,811.0 L760.0,863.0" fill="none" stroke="#9a6700" stroke-width="2.5" stroke-dasharray="8 6"/>
<rect x="694.5" y="849.5" width="131.0" height="19.5" rx="4" fill="#ffffff" stroke="none" stroke-width="0"/>
<text x="760" y="862" font-size="12.5" font-weight="600" fill="#9a6700" text-anchor="middle">publish · consume</text>
<path d="M960.0,798.0 L953.0,811.0 L967.0,811.0 z" fill="#9a6700"/>
<path d="M960.0,876.0 L960.0,811.0" fill="none" stroke="#9a6700" stroke-width="2.5" stroke-dasharray="8 6"/>
<rect x="929.5" y="849.5" width="61.00000000000001" height="19.5" rx="4" fill="#ffffff" stroke="none" stroke-width="0"/>
<text x="960" y="862" font-size="12.5" font-weight="600" fill="#9a6700" text-anchor="middle">consume</text>
<rect x="1100" y="14" width="324" height="1006" rx="16" fill="none" stroke="#7a849e" stroke-width="1.6" stroke-dasharray="7 6"/>
<text x="1116" y="38" font-size="12" font-weight="700" fill="#7a849e" text-anchor="start">AWS RUNTIME &amp; OPERATIONS</text>
<rect x="1112" y="56" width="288" height="92" rx="12" fill="#f6f7f9" stroke="#b4bac7" stroke-width="1.5"/>
<text x="1256.0" y="87.425" font-size="15.5" font-weight="700" fill="#14213d" text-anchor="middle">ECS Fargate</text>
<text x="1256.0" y="107.425" font-size="13.5" font-weight="400" fill="#4b587c" text-anchor="middle">gateway · Eureka · 11 services</text>
<text x="1256.0" y="127.425" font-size="13.5" font-weight="400" fill="#4b587c" text-anchor="middle">private subnets</text>
<rect x="1112" y="172" width="288" height="92" rx="12" fill="#f6f7f9" stroke="#b4bac7" stroke-width="1.5"/>
<text x="1256.0" y="203.425" font-size="15.5" font-weight="700" fill="#14213d" text-anchor="middle">RDS PostgreSQL</text>
<text x="1256.0" y="223.425" font-size="13.5" font-weight="400" fill="#4b587c" text-anchor="middle">11 service-owned logical DBs</text>
<text x="1256.0" y="243.425" font-size="13.5" font-weight="400" fill="#4b587c" text-anchor="middle">one deployment · Multi-AZ</text>
<rect x="1112" y="288" width="288" height="72" rx="12" fill="#f6f7f9" stroke="#b4bac7" stroke-width="1.5"/>
<text x="1256.0" y="319.425" font-size="15.5" font-weight="700" fill="#14213d" text-anchor="middle">ECR</text>
<text x="1256.0" y="339.425" font-size="13.5" font-weight="400" fill="#4b587c" text-anchor="middle">container images</text>
<rect x="1112" y="384" width="288" height="72" rx="12" fill="#f6f7f9" stroke="#b4bac7" stroke-width="1.5"/>
<text x="1256.0" y="415.425" font-size="15.5" font-weight="700" fill="#14213d" text-anchor="middle">Secrets Manager</text>
<text x="1256.0" y="435.425" font-size="13.5" font-weight="400" fill="#4b587c" text-anchor="middle">DB password · JWT secret</text>
<rect x="1112" y="480" width="288" height="72" rx="12" fill="#f6f7f9" stroke="#b4bac7" stroke-width="1.5"/>
<text x="1256.0" y="511.425" font-size="15.5" font-weight="700" fill="#14213d" text-anchor="middle">CloudWatch Logs</text>
<text x="1256.0" y="531.425" font-size="13.5" font-weight="400" fill="#4b587c" text-anchor="middle">service · WAF · MSK logs</text>
<rect x="1112" y="576" width="288" height="92" rx="12" fill="#f6f7f9" stroke="#b4bac7" stroke-width="1.5"/>
<text x="1256.0" y="607.425" font-size="15.5" font-weight="700" fill="#14213d" text-anchor="middle">Prometheus · Grafana · Zipkin</text>
<text x="1256.0" y="627.425" font-size="13.5" font-weight="400" fill="#4b587c" text-anchor="middle">metrics · dashboards · traces</text>
<text x="1256.0" y="647.425" font-size="13.5" font-weight="400" fill="#4b587c" text-anchor="middle">application observability</text>
<rect x="1112" y="692" width="288" height="92" rx="12" fill="#f6f7f9" stroke="#b4bac7" stroke-width="1.5"/>
<text x="1256.0" y="723.425" font-size="15.5" font-weight="700" fill="#14213d" text-anchor="middle">Delivery</text>
<text x="1256.0" y="743.425" font-size="13.5" font-weight="400" fill="#4b587c" text-anchor="middle">GitHub Actions · CodeQL · Trivy</text>
<text x="1256.0" y="763.425" font-size="13.5" font-weight="400" fill="#4b587c" text-anchor="middle">Docker Compose · Terraform</text>
<path d="M50.0,1062.0 L100.0,1062.0" fill="none" stroke="#3f4ab8" stroke-width="2.5"/>
<text x="110" y="1067" font-size="14" font-weight="400" fill="#4b587c" text-anchor="start">REST / OpenFeign · immediate, authoritative</text>
<path d="M450.0,1062.0 L500.0,1062.0" fill="none" stroke="#9a6700" stroke-width="2.5" stroke-dasharray="8 6"/>
<text x="510" y="1067" font-size="14" font-weight="400" fill="#4b587c" text-anchor="start">Kafka event · derived, asynchronous</text>
<path d="M800.0,1062.0 L850.0,1062.0" fill="none" stroke="#0b6f8a" stroke-width="2.5"/>
<text x="860" y="1067" font-size="14" font-weight="400" fill="#4b587c" text-anchor="start">data access</text>
<rect x="1000" y="1053" width="40" height="18" rx="5" fill="#f6f7f9" stroke="#b4bac7" stroke-width="1.5"/>
<text x="1050" y="1067" font-size="14" font-weight="400" fill="#4b587c" text-anchor="start">AWS infrastructure model</text>
</svg>
